<svg width="678" height="153" viewBox="0 0 678 153" fill="none" xmlns="http://www.w3.org/2000/svg">
<path d="M17.1746 54.182V0.0595703H0V53.2781C0 62.7128 7.73986 70.4527 17.1746 70.4527H65.0826V54.2386H17.1746V54.182Z" fill="white"/>
<path d="M128.244 0H92.7088C83.5566 0 76.0427 7.23137 75.5343 16.2141H128.244V54.0095H92.7088V25.0839L75.5343 25.1404V53.0491C75.5343 62.4838 83.2741 70.2237 92.7088 70.2237H128.244C137.679 70.2237 145.419 62.4838 145.419 53.0491V17.1746C145.419 7.73984 137.679 0 128.244 0Z" fill="white"/>
<path d="M209.993 0V54.0659H174.457V0H157.283V53.1056C157.283 62.5403 165.023 70.2801 174.457 70.2801H209.993C219.428 70.2801 227.168 62.5403 227.168 53.1056V0H209.993Z" fill="white"/>
<path d="M240.218 0V70.3931H257.392V0H240.218Z" fill="white"/>
<path d="M337.842 16.2708V0.0566406H287.053C277.618 0.0566406 269.878 7.79651 269.878 17.2312V26.1009C269.878 35.5357 277.618 43.2755 287.053 43.2755H320.667V54.1791H269.878V70.3933H320.667C330.102 70.3933 337.842 62.6534 337.842 53.2187V44.236C337.842 34.8012 330.102 27.0614 320.667 27.0614H287.053V16.2708H337.842Z" fill="white"/>
<path d="M401.512 0L374.394 70.3931H392.812L419.93 0H401.512ZM365.694 0H347.277L369.649 57.9641L378.914 34.1231L365.694 0Z" fill="white"/>
<path d="M429.59 0V70.3931H446.765V0H429.59Z" fill="white"/>
<path d="M476.934 54.1791V0.0566406H459.759V53.2752C459.759 62.7099 467.499 70.4498 476.934 70.4498H524.898V54.2356H476.934V54.1791Z" fill="white"/>
<path d="M553.541 54.1791V0.0566406H536.367V53.2752C536.367 62.7099 544.106 70.4498 553.541 70.4498H601.449V54.2356H553.541V54.1791Z" fill="white"/>
<path d="M629.075 0C619.923 0 612.409 7.23137 611.9 16.2141H676.983V0H629.075ZM629.075 54.0659V43.2754H676.079V27.0612H611.844V53.1056C611.844 62.5403 619.584 70.2801 629.018 70.2801H677.887V54.0659H629.075Z" fill="white"/>
<path d="M11.2426 135.306V151.577H0V102.426H24.9144C31.1289 102.426 35.6486 103.669 38.5863 106.155C41.5241 108.64 42.9365 112.595 42.9365 118.019V120.561C42.9365 127.623 39.9422 132.086 34.0102 134.007L44.6878 151.577H32.4848L23.0501 135.306H11.2426ZM11.2426 127.114H24.293C26.8353 127.114 28.6996 126.606 29.9425 125.589C31.1289 124.572 31.7504 122.934 31.7504 120.674V117.115C31.7504 114.855 31.1289 113.216 29.9425 112.2C28.7561 111.126 26.8918 110.618 24.293 110.618H11.2426V127.114Z" fill="#EF0F0F"/>
<path d="M120.166 152.085H111.296C104.516 152.085 99.6013 150.786 96.5505 148.131C93.4998 145.475 91.9744 141.182 91.9744 135.193V118.753C91.9744 112.708 93.4998 108.414 96.5505 105.759C99.6013 103.104 104.516 101.805 111.296 101.805H120.222C127.001 101.805 131.917 103.104 134.967 105.759C138.018 108.414 139.543 112.708 139.543 118.753V135.193C139.543 141.182 138.018 145.475 134.967 148.131C131.86 150.786 126.945 152.085 120.166 152.085ZM112.426 143.668H118.979C122.143 143.668 124.459 142.99 125.985 141.69C127.453 140.391 128.188 138.188 128.188 135.024V118.866C128.188 115.759 127.453 113.499 125.985 112.2C124.516 110.844 122.143 110.222 118.979 110.222H112.426C109.262 110.222 106.946 110.9 105.42 112.2C103.951 113.556 103.217 115.759 103.217 118.866V135.024C103.217 138.131 103.951 140.391 105.42 141.69C106.946 143.046 109.262 143.668 112.426 143.668Z" fill="#EF0F0F"/>
<path d="M208.637 143.668H227.846V151.012C223.778 151.69 218.919 152.085 213.27 152.085H207.507C200.728 152.085 195.813 150.786 192.762 148.131C189.711 145.475 188.186 141.182 188.186 135.193V118.753C188.186 112.708 189.711 108.414 192.762 105.759C195.813 103.104 200.728 101.805 207.507 101.805H212.874C218.524 101.805 223.439 102.143 227.45 102.878V110.222H208.637C205.473 110.222 203.157 110.9 201.632 112.2C200.163 113.556 199.428 115.759 199.428 118.866V135.024C199.428 138.131 200.163 140.391 201.632 141.69C203.157 143.046 205.473 143.668 208.637 143.668Z" fill="#EF0F0F"/>
<path d="M287.674 102.37V124.233L306.431 102.37H319.086L300.725 123.442L321.91 151.52H309.312L293.945 131.182L287.674 138.414V151.52H276.432V102.37H287.674Z" fill="#EF0F0F"/>
<path d="M403.941 151.52H367.107V102.37H403.546V110.561H378.349V122.143H402.021V130.278H378.349V143.385H403.941V151.52Z" fill="#EF0F0F"/>
<path d="M448.347 110.787V102.37H492.921V110.787H476.255V151.577H465.069V110.787H448.347Z" fill="#EF0F0F"/>
<path d="M550.603 135.306V151.577H539.36V102.426H564.275C570.489 102.426 575.009 103.669 577.947 106.155C580.885 108.64 582.297 112.595 582.297 118.019V120.561C582.297 127.623 579.303 132.086 573.371 134.007L584.048 151.577H571.845L562.411 135.306H550.603ZM550.603 127.114H563.653C566.196 127.114 568.06 126.606 569.303 125.589C570.489 124.572 571.111 122.934 571.111 120.674V117.115C571.111 114.855 570.489 113.216 569.303 112.2C568.117 111.126 566.252 110.618 563.653 110.618H550.603V127.114Z" fill="#EF0F0F"/>
<path d="M657.888 151.52H646.645V134.911L626.589 102.37H638.623L652.295 124.968L665.967 102.37H678L657.944 134.911V151.52H657.888Z" fill="#EF0F0F"/>
</svg>
